<svg xmlns="http://www.w3.org/2000/svg" xmlns:xlink="http://www.w3.org/1999/xlink" width="300" zoomAndPan="magnify" viewBox="0 0 224.87999 74.999997" height="100" preserveAspectRatio="xMidYMid meet" version="1.0"><defs><g/></defs><path stroke-linecap="butt" transform="matrix(1.195128, 0, 0, 1.194049, 9.543777, 14.71824)" fill="none" stroke-linejoin="miter" d="M -0.00067636 0.000427038 L 172.849474 0.000427038 " stroke="#ffffff" stroke-width="1" stroke-opacity="1" stroke-miterlimit="4"/><path stroke-linecap="butt" transform="matrix(1.198577, 0, 0, 1.194049, 9.543777, 57.202816)" fill="none" stroke-linejoin="miter" d="M -0.000674414 0.000258396 L 45.329787 0.000258396 " stroke="#ffffff" stroke-width="1" stroke-opacity="1" stroke-miterlimit="4"/><path stroke-linecap="butt" transform="matrix(0.000000000000000073, 1.191499, -1.194049, 0.000000000000000073, 8.945477, 14.122491)" fill="none" stroke-linejoin="miter" d="M -0.00117282 0.000137668 L 36.579592 0.000137668 " stroke="#ffffff" stroke-width="1" stroke-opacity="1" stroke-miterlimit="4"/><path stroke-linecap="butt" transform="matrix(0.000000000000000073, 1.191499, -1.194049, 0.000000000000000073, 215.931955, 14.122491)" fill="none" stroke-linejoin="miter" d="M -0.00117282 -0.00137274 L 36.579592 -0.00137274 " stroke="#ffffff" stroke-width="1" stroke-opacity="1" stroke-miterlimit="4"/><path stroke-linecap="butt" transform="matrix(1.198577, 0, 0, 1.194049, 162.403213, 58.396866)" fill="none" stroke-linejoin="miter" d="M -0.000725017 0.00131645 L 45.329736 0.00131645 " stroke="#ffffff" stroke-width="1" stroke-opacity="1" stroke-miterlimit="4"/><g fill="#ffffff" fill-opacity="1"><g transform="translate(24.976344, 44.538949)"><g><path d="M 1.273438 -16.96875 L 1.273438 0.433594 C 1.273438 3.113281 0.894531 4.816406 -1.785156 4.816406 L -1.785156 5.25 C 1.40625 5.25 3.21875 3.03125 3.21875 0.433594 L 3.21875 -16.96875 Z M 1.273438 -16.96875 "/></g></g></g><g fill="#ffffff" fill-opacity="1"><g transform="translate(32.31047, 44.538949)"><g><path d="M 10.390625 -17.292969 C 5.519531 -17.292969 1.082031 -14.695312 1.082031 -8.417969 C 1.082031 -1.191406 6.980469 0.515625 10.390625 0.515625 C 13.773438 0.515625 19.703125 -1.191406 19.703125 -8.417969 C 19.703125 -14.695312 15.238281 -17.292969 10.390625 -17.292969 Z M 10.390625 0.0546875 C 7.335938 0.0546875 3.058594 -1.300781 3.058594 -8.417969 C 3.058594 -15.425781 7.765625 -16.859375 10.390625 -16.859375 C 13.015625 -16.859375 17.726562 -15.425781 17.726562 -8.417969 C 17.726562 -1.300781 13.421875 0.0546875 10.390625 0.0546875 Z M 10.390625 0.0546875 "/></g></g></g><g fill="#ffffff" fill-opacity="1"><g transform="translate(55.962988, 44.538949)"><g><path d="M 14.152344 0.0273438 L 16.238281 0.0273438 L 8.796875 -17.292969 L 8.660156 -17.292969 L 0.945312 0.0273438 L 1.542969 0.0273438 L 4.601562 -6.792969 L 11.203125 -6.792969 Z M 4.789062 -7.253906 L 7.957031 -14.371094 L 11.015625 -7.253906 Z M 4.789062 -7.253906 "/></g></g></g><g fill="#ffffff" fill-opacity="1"><g transform="translate(75.880951, 44.538949)"><g><path d="M 15.101562 -16.96875 L 14.667969 -16.96875 L 14.667969 -2.570312 L 1.351562 -17.292969 L 1.300781 -17.292969 L 1.300781 0.0273438 L 1.730469 0.0273438 L 1.730469 -14.207031 L 15.019531 0.515625 L 15.101562 0.515625 Z M 15.101562 -16.96875 "/></g></g></g><g fill="#ffffff" fill-opacity="1"><g transform="translate(95.12236, 44.538949)"><g><path d="M 15.101562 -16.96875 L 14.667969 -16.96875 L 14.667969 -2.570312 L 1.351562 -17.292969 L 1.300781 -17.292969 L 1.300781 0.0273438 L 1.730469 0.0273438 L 1.730469 -14.207031 L 15.019531 0.515625 L 15.101562 0.515625 Z M 15.101562 -16.96875 "/></g></g></g><g fill="#ffffff" fill-opacity="1"><g transform="translate(114.363764, 44.538949)"><g><path d="M 14.152344 0.0273438 L 16.238281 0.0273438 L 8.796875 -17.292969 L 8.660156 -17.292969 L 0.945312 0.0273438 L 1.542969 0.0273438 L 4.601562 -6.792969 L 11.203125 -6.792969 Z M 4.789062 -7.253906 L 7.957031 -14.371094 L 11.015625 -7.253906 Z M 4.789062 -7.253906 "/></g></g></g><g fill="#ffffff" fill-opacity="1"><g transform="translate(134.281732, 44.538949)"><g/></g></g><g fill="#ffffff" fill-opacity="1"><g transform="translate(143.753757, 44.538949)"><g><path d="M 9.90625 -16.535156 L 9.90625 -16.96875 L 1.300781 -16.96875 L 1.300781 0.0273438 L 3.21875 0.0273438 L 3.21875 -8.632812 L 9.175781 -8.632812 L 9.175781 -9.066406 L 3.21875 -9.066406 L 3.21875 -16.535156 Z M 9.90625 -16.535156 "/></g></g></g><g fill="#ffffff" fill-opacity="1"><g transform="translate(157.339207, 44.538949)"><g><path d="M 1.570312 0.0273438 L 3.492188 0.0273438 L 3.492188 -16.96875 L 1.570312 -16.96875 Z M 1.570312 0.0273438 "/></g></g></g><g fill="#ffffff" fill-opacity="1"><g transform="translate(165.241637, 44.538949)"><g><path d="M 3.21875 -0.40625 L 3.21875 -16.96875 L 1.300781 -16.96875 L 1.300781 0.0273438 L 9.984375 0.0273438 L 9.984375 -0.40625 Z M 3.21875 -0.40625 "/></g></g></g><g fill="#ffffff" fill-opacity="1"><g transform="translate(178.989461, 44.538949)"><g><path d="M 1.570312 0.0273438 L 3.492188 0.0273438 L 3.492188 -16.96875 L 1.570312 -16.96875 Z M 1.570312 0.0273438 "/></g></g></g><g fill="#ffffff" fill-opacity="1"><g transform="translate(186.891892, 44.538949)"><g><path d="M 6.441406 -16.96875 C 5.113281 -16.96875 1.300781 -16.96875 1.300781 -16.96875 L 1.300781 0.0273438 L 3.21875 0.0273438 L 3.21875 -7.875 L 5.167969 -7.875 C 5.980469 -7.875 11.878906 -7.847656 11.878906 -12.71875 C 11.878906 -16.453125 7.820312 -16.96875 6.441406 -16.96875 Z M 4.707031 -8.308594 L 3.21875 -8.308594 L 3.21875 -16.535156 L 5.414062 -16.535156 C 8.171875 -16.535156 9.824219 -15.398438 9.824219 -12.421875 C 9.824219 -9.390625 7.875 -8.308594 4.707031 -8.308594 Z M 4.707031 -8.308594 "/></g></g></g><g fill="#ffffff" fill-opacity="1"><g transform="translate(70.955871, 59.028004)"><g><path d="M 2.726562 -3.613281 L 2.726562 -4.03125 L 0.523438 -4.03125 L 0.523438 0 L 2.726562 0 L 2.726562 -0.417969 L 0.953125 -0.417969 L 0.953125 -1.808594 L 2.5 -1.808594 L 2.5 -2.222656 L 0.953125 -2.222656 L 0.953125 -3.613281 Z M 2.726562 -3.613281 "/></g></g></g><g fill="#ffffff" fill-opacity="1"><g transform="translate(75.746129, 59.028004)"><g><path d="M 2.894531 0 L 3.492188 0 L 1.578125 -2.167969 L 3.417969 -4.03125 L 2.820312 -4.03125 L 1.203125 -2.378906 L 0.921875 -2.378906 L 0.921875 -4.03125 L 0.492188 -4.03125 L 0.492188 0 L 0.921875 0 L 0.921875 -1.976562 L 1.207031 -1.976562 Z M 2.894531 0 "/></g></g></g><g fill="#ffffff" fill-opacity="1"><g transform="translate(80.852062, 59.028004)"><g><path d="M 1.503906 0.0546875 C 2.191406 0.0546875 2.746094 -0.355469 2.746094 -1.0625 C 2.746094 -2.429688 0.785156 -2.09375 0.785156 -3.054688 C 0.785156 -3.460938 1.113281 -3.652344 1.492188 -3.652344 C 1.800781 -3.652344 2.054688 -3.527344 2.214844 -3.296875 L 2.550781 -3.578125 C 2.332031 -3.863281 1.941406 -4.082031 1.476562 -4.082031 C 0.859375 -4.082031 0.355469 -3.679688 0.355469 -3.023438 C 0.355469 -1.726562 2.316406 -2.046875 2.316406 -1.046875 C 2.316406 -0.617188 1.960938 -0.375 1.511719 -0.375 C 1.054688 -0.375 0.726562 -0.625 0.585938 -0.992188 L 0.195312 -0.765625 C 0.402344 -0.269531 0.90625 0.0546875 1.503906 0.0546875 Z M 1.503906 0.0546875 "/></g></g></g><g fill="#ffffff" fill-opacity="1"><g transform="translate(85.454256, 59.028004)"><g><path d="M 1.933594 -4.03125 L 0.492188 -4.03125 L 0.492188 0 L 0.921875 0 L 0.921875 -1.792969 L 1.933594 -1.792969 C 2.558594 -1.792969 3.054688 -2.285156 3.054688 -2.910156 C 3.054688 -3.527344 2.558594 -4.03125 1.933594 -4.03125 Z M 1.894531 -2.203125 L 0.921875 -2.203125 L 0.921875 -3.613281 L 1.894531 -3.613281 C 2.296875 -3.613281 2.625 -3.332031 2.625 -2.902344 C 2.625 -2.457031 2.296875 -2.203125 1.894531 -2.203125 Z M 1.894531 -2.203125 "/></g></g></g><g fill="#ffffff" fill-opacity="1"><g transform="translate(90.284816, 59.028004)"><g><path d="M 2.726562 -3.613281 L 2.726562 -4.03125 L 0.523438 -4.03125 L 0.523438 0 L 2.726562 0 L 2.726562 -0.417969 L 0.953125 -0.417969 L 0.953125 -1.808594 L 2.5 -1.808594 L 2.5 -2.222656 L 0.953125 -2.222656 L 0.953125 -3.613281 Z M 2.726562 -3.613281 "/></g></g></g><g fill="#ffffff" fill-opacity="1"><g transform="translate(95.075073, 59.028004)"><g><path d="M 2.121094 -1.839844 C 2.652344 -1.914062 3.054688 -2.359375 3.054688 -2.902344 C 3.054688 -3.53125 2.550781 -4.03125 1.933594 -4.03125 L 0.492188 -4.03125 L 0.492188 0 L 0.921875 0 L 0.921875 -1.820312 L 1.679688 -1.820312 L 2.820312 0 L 3.3125 0 Z M 0.921875 -2.230469 L 0.921875 -3.601562 L 1.90625 -3.601562 C 2.308594 -3.601562 2.625 -3.316406 2.625 -2.914062 C 2.625 -2.503906 2.316406 -2.230469 1.90625 -2.230469 Z M 0.921875 -2.230469 "/></g></g></g><g fill="#ffffff" fill-opacity="1"><g transform="translate(100.107125, 59.028004)"><g><path d="M 2.71875 -4.03125 L 0.0585938 -4.03125 L 0.0585938 -3.601562 L 1.175781 -3.601562 L 1.175781 0 L 1.605469 0 L 1.605469 -3.601562 L 2.71875 -3.601562 Z M 2.71875 -4.03125 "/></g></g></g><g fill="#ffffff" fill-opacity="1"><g transform="translate(104.548118, 59.028004)"><g/></g></g><g fill="#ffffff" fill-opacity="1"><g transform="translate(107.827157, 59.028004)"><g><path d="M 2.894531 0 L 3.492188 0 L 1.578125 -2.167969 L 3.417969 -4.03125 L 2.820312 -4.03125 L 1.203125 -2.378906 L 0.921875 -2.378906 L 0.921875 -4.03125 L 0.492188 -4.03125 L 0.492188 0 L 0.921875 0 L 0.921875 -1.976562 L 1.207031 -1.976562 Z M 2.894531 0 "/></g></g></g><g fill="#ffffff" fill-opacity="1"><g transform="translate(112.933089, 59.028004)"><g><path d="M 2.121094 -1.839844 C 2.652344 -1.914062 3.054688 -2.359375 3.054688 -2.902344 C 3.054688 -3.53125 2.550781 -4.03125 1.933594 -4.03125 L 0.492188 -4.03125 L 0.492188 0 L 0.921875 0 L 0.921875 -1.820312 L 1.679688 -1.820312 L 2.820312 0 L 3.3125 0 Z M 0.921875 -2.230469 L 0.921875 -3.601562 L 1.90625 -3.601562 C 2.308594 -3.601562 2.625 -3.316406 2.625 -2.914062 C 2.625 -2.503906 2.316406 -2.230469 1.90625 -2.230469 Z M 0.921875 -2.230469 "/></g></g></g><g fill="#ffffff" fill-opacity="1"><g transform="translate(117.965141, 59.028004)"><g><path d="M 2.726562 -3.613281 L 2.726562 -4.03125 L 0.523438 -4.03125 L 0.523438 0 L 2.726562 0 L 2.726562 -0.417969 L 0.953125 -0.417969 L 0.953125 -1.808594 L 2.5 -1.808594 L 2.5 -2.222656 L 0.953125 -2.222656 L 0.953125 -3.613281 Z M 2.726562 -3.613281 "/></g></g></g><g fill="#ffffff" fill-opacity="1"><g transform="translate(122.755398, 59.028004)"><g><path d="M 0.492188 0 L 1.59375 0 C 2.699219 0 3.605469 -0.898438 3.605469 -2.015625 C 3.605469 -3.128906 2.699219 -4.03125 1.59375 -4.03125 L 0.492188 -4.03125 Z M 0.914062 -0.429688 L 0.914062 -3.601562 L 1.585938 -3.601562 C 2.476562 -3.601562 3.175781 -2.921875 3.175781 -2.015625 C 3.175781 -1.109375 2.476562 -0.429688 1.585938 -0.429688 Z M 0.914062 -0.429688 "/></g></g></g><g fill="#ffffff" fill-opacity="1"><g transform="translate(128.351641, 59.028004)"><g><path d="M 3.25 -4.03125 L 2.71875 -4.03125 L 1.632812 -2.359375 L 0.542969 -4.03125 L 0.0078125 -4.03125 L 1.417969 -1.90625 L 1.417969 0 L 1.847656 0 L 1.847656 -1.914062 Z M 3.25 -4.03125 "/></g></g></g><g fill="#ffffff" fill-opacity="1"><g transform="translate(133.269509, 59.028004)"><g><path d="M 2.71875 -4.03125 L 0.0585938 -4.03125 L 0.0585938 -3.601562 L 1.175781 -3.601562 L 1.175781 0 L 1.605469 0 L 1.605469 -3.601562 L 2.71875 -3.601562 Z M 2.71875 -4.03125 "/></g></g></g><g fill="#ffffff" fill-opacity="1"><g transform="translate(137.710503, 59.028004)"><g><path d="M 2.398438 0.0546875 C 3.546875 0.0546875 4.464844 -0.875 4.464844 -2.015625 C 4.464844 -3.15625 3.546875 -4.082031 2.398438 -4.082031 C 1.257812 -4.082031 0.328125 -3.15625 0.328125 -2.015625 C 0.328125 -0.875 1.257812 0.0546875 2.398438 0.0546875 Z M 2.398438 -0.375 C 1.492188 -0.375 0.757812 -1.101562 0.757812 -2.015625 C 0.757812 -2.929688 1.492188 -3.652344 2.398438 -3.652344 C 3.3125 -3.652344 4.035156 -2.929688 4.035156 -2.015625 C 4.035156 -1.101562 3.3125 -0.375 2.398438 -0.375 Z M 2.398438 -0.375 "/></g></g></g><g fill="#ffffff" fill-opacity="1"><g transform="translate(144.173178, 59.028004)"><g><path d="M 5.03125 -4.03125 L 3.996094 -0.71875 L 3.015625 -4.03125 L 2.410156 -4.03125 L 1.445312 -0.726562 L 0.417969 -4.03125 L -0.0390625 -4.03125 L 1.222656 0 L 1.679688 0 L 2.714844 -3.574219 L 3.769531 0 L 4.21875 0 L 5.472656 -4.03125 Z M 5.03125 -4.03125 "/></g></g></g><g fill="#ffffff" fill-opacity="1"><g transform="translate(151.267216, 59.028004)"><g><path d="M 3.25 -4.03125 L 2.71875 -4.03125 L 1.632812 -2.359375 L 0.542969 -4.03125 L 0.0078125 -4.03125 L 1.417969 -1.90625 L 1.417969 0 L 1.847656 0 L 1.847656 -1.914062 Z M 3.25 -4.03125 "/></g></g></g></svg>